<svg width="20" height="20" viewBox="0 0 20 20" fill="none" xmlns="http://www.w3.org/2000/svg">
<path d="M9.99992 13.125C10.986 13.125 11.8228 12.7812 12.5103 12.0937C13.1978 11.4062 13.5416 10.5694 13.5416 9.58333C13.5416 8.59722 13.1978 7.76042 12.5103 7.07292C11.8228 6.38542 10.986 6.04167 9.99992 6.04167C9.01381 6.04167 8.177 6.38542 7.4895 7.07292C6.802 7.76042 6.45825 8.59722 6.45825 9.58333C6.45825 10.5694 6.802 11.4062 7.4895 12.0937C8.177 12.7812 9.01381 13.125 9.99992 13.125ZM9.99992 11.9167C9.34714 11.9167 8.79506 11.691 8.34367 11.2396C7.89228 10.7882 7.66659 10.2361 7.66659 9.58333C7.66659 8.93055 7.89228 8.37847 8.34367 7.92708C8.79506 7.47569 9.34714 7.25 9.99992 7.25C10.6527 7.25 11.2048 7.47569 11.6562 7.92708C12.1076 8.37847 12.3333 8.93055 12.3333 9.58333C12.3333 10.2361 12.1076 10.7882 11.6562 11.2396C11.2048 11.691 10.6527 11.9167 9.99992 11.9167ZM9.99992 15.8333C7.97214 15.8333 6.13881 15.2569 4.49992 14.1042C2.86103 12.9514 1.63881 11.4444 0.833252 9.58333C1.63881 7.72222 2.86103 6.21528 4.49992 5.0625C6.13881 3.90972 7.97214 3.33333 9.99992 3.33333C12.0277 3.33333 13.861 3.90972 15.4999 5.0625C17.1388 6.21528 18.361 7.72222 19.1666 9.58333C18.361 11.4444 17.1388 12.9514 15.4999 14.1042C13.861 15.2569 12.0277 15.8333 9.99992 15.8333ZM9.99992 14.5833C11.6805 14.5833 13.2256 14.1285 14.6353 13.2187C16.0451 12.309 17.118 11.0972 17.8541 9.58333C17.118 8.06944 16.0451 6.85764 14.6353 5.94792C13.2256 5.03819 11.6805 4.58333 9.99992 4.58333C8.31936 4.58333 6.77422 5.03819 5.3645 5.94792C3.95478 6.85764 2.87492 8.06944 2.12492 9.58333C2.87492 11.0972 3.95478 12.309 5.3645 13.2187C6.77422 14.1285 8.31936 14.5833 9.99992 14.5833Z" fill="black"/>
</svg>
