<svg width="60" height="60" viewBox="0 0 60 60" fill="none" xmlns="http://www.w3.org/2000/svg">
<path d="M30 0C24.0666 0 18.2664 1.75947 13.3329 5.05591C8.39943 8.35235 4.55426 13.0377 2.28363 18.5195C0.0129986 24.0013 -0.581101 30.0333 0.576455 35.8527C1.73401 41.6721 4.59123 47.0176 8.78681 51.2132C12.9824 55.4088 18.3279 58.266 24.1473 59.4235C29.9667 60.5811 35.9987 59.987 41.4805 57.7164C46.9623 55.4457 51.6476 51.6006 54.9441 46.6671C58.2405 41.7336 60 35.9334 60 30C59.9914 22.0461 56.8279 14.4205 51.2037 8.7963C45.5795 3.17207 37.9539 0.0086027 30 0V0ZM30 55C25.0555 55 20.222 53.5338 16.1108 50.7867C11.9995 48.0397 8.79521 44.1352 6.90302 39.5671C5.01083 34.9989 4.51575 29.9723 5.48038 25.1227C6.44501 20.2732 8.82603 15.8186 12.3223 12.3223C15.8187 8.82602 20.2732 6.445 25.1228 5.48037C29.9723 4.51574 34.9989 5.01082 39.5671 6.90301C44.1352 8.7952 48.0397 11.9995 50.7867 16.1107C53.5338 20.222 55 25.0555 55 30C54.9927 36.6282 52.3565 42.9828 47.6696 47.6696C42.9828 52.3565 36.6282 54.9927 30 55Z" fill="#176BFC"/>
<path d="M30.0002 12.2727C29.2769 12.2727 28.5832 12.5385 28.0717 13.0116C27.5603 13.4847 27.2729 14.1264 27.2729 14.7954V34.9773C27.2729 35.6463 27.5603 36.288 28.0717 36.7611C28.5832 37.2342 29.2769 37.5 30.0002 37.5C30.7235 37.5 31.4172 37.2342 31.9287 36.7611C32.4402 36.288 32.7275 35.6463 32.7275 34.9773V14.7954C32.7275 14.1264 32.4402 13.4847 31.9287 13.0116C31.4172 12.5385 30.7235 12.2727 30.0002 12.2727Z" fill="#176BFC"/>
<path d="M32.7275 45C32.7275 43.4937 31.5065 42.2727 30.0002 42.2727C28.494 42.2727 27.2729 43.4937 27.2729 45C27.2729 46.5062 28.494 47.7273 30.0002 47.7273C31.5065 47.7273 32.7275 46.5062 32.7275 45Z" fill="#176BFC"/>
</svg>
