<svg width="56" height="56" viewBox="0 0 56 56" fill="none" xmlns="http://www.w3.org/2000/svg">
<path d="M56 28C56 43.464 43.464 56 28 56C12.536 56 0 43.464 0 28C0 12.536 12.536 0 28 0C43.464 0 56 12.536 56 28Z" fill="#EDF2F8"/>
<path d="M28.3425 48.4214C27.813 49.2487 26.6044 49.2487 26.0749 48.4214C25.5013 47.5254 26.1448 46.3495 27.2087 46.3495C28.2726 46.3495 28.916 47.5254 28.3425 48.4214Z" fill="#A0DDFF"/>
<path d="M38.1131 15.2269C37.8815 14.8729 37.2734 14.0972 34.0568 12.8771C32.8345 12.4133 32.1931 12.1704 31.1956 11.9433C30.7867 11.8504 29.1901 11.5033 27.1393 11.5215C25.2062 11.5384 21.6652 11.5705 18.6282 13.6905C15.9262 15.5764 15.186 18.0247 15.0427 18.5406C14.8427 19.2586 14.1259 22.0257 15.9843 24.6559C17.2436 26.4383 19.1367 27.3917 19.8958 27.7287C20.6571 28.0663 21.5701 28.3569 22.7207 28.7228C23.9544 29.1151 24.9858 29.3912 25.5457 29.5362C27.5135 30.0452 27.9217 30.0332 29.421 30.5002C30.3136 30.7782 30.7595 30.9175 31.3405 31.193C32.1426 31.574 33.4864 32.2123 34.2017 33.362C34.9917 34.6317 34.8415 36.1963 34.1292 37.3686C32.9869 39.2496 30.601 39.7655 29.5658 39.9895C27.0231 40.5399 24.887 39.9418 23.0105 39.4171C21.6531 39.0374 21.1981 38.905 19.9139 38.167C18.9677 37.6228 18.7172 37.4025 17.9763 36.8866C17.6601 36.6664 17.0301 36.394 16.3827 36.4348C15.2864 36.5032 14.2911 37.5626 14.2459 38.5736C14.2059 39.463 14.9083 40.1263 15.3686 40.5619C15.6991 40.8744 16.0228 41.0872 16.8173 41.5259C18.1558 42.2646 18.8244 42.6342 19.7509 43.002C20.2617 43.2047 22.185 43.9378 24.8938 44.207C28.4363 44.5585 31.1368 43.8995 31.7027 43.7551C33.0367 43.415 34.6748 42.997 36.3023 41.797C38.2286 40.3761 38.9612 38.7287 39.2721 38.0013C39.5981 37.2394 40.5382 34.9405 39.5618 32.1872C39.3098 31.4761 38.6579 29.9673 37.0628 28.5722C35.3584 27.0816 33.512 26.4823 30.2902 25.5597C26.9869 24.6139 25.3827 24.2041 24.2781 23.9028C23.6828 23.7403 23.0399 23.6417 21.9964 23.1798C21.7474 23.07 20.3123 22.1349 20.0769 20.559C19.7917 18.6517 21.4977 17.1241 22.8656 16.462C23.5749 16.1187 24.1823 16.0132 24.8938 15.8896C27.2879 15.4741 29.298 15.9367 30.1815 16.1909C32.0135 16.7174 33.3687 17.5164 33.3687 17.5164C34.2816 18.0542 34.926 18.6052 35.9922 18.6385C36.2027 18.6454 36.7784 18.6573 37.3458 18.3711C38.2512 17.9149 38.5561 16.9904 38.5108 16.3107C38.501 16.1469 38.4527 15.7446 38.1131 15.2269Z" fill="#176BFC"/>
<rect x="24.7944" y="10.2233" width="4.68896" height="34.973" rx="2.34448" fill="#A0DDFF"/>
<path d="M24.8434 8.64681C24.8434 7.63088 25.6669 6.80731 26.6829 6.80731H27.7382C28.7542 6.80731 29.5777 7.63088 29.5777 8.64681C29.5777 8.93708 29.3424 9.17238 29.0522 9.17238H25.3689C25.0787 9.17238 24.8434 8.93708 24.8434 8.64681Z" fill="#A0DDFF"/>
</svg>
