<svg width="58" height="48" viewBox="0 0 58 48" fill="none" xmlns="http://www.w3.org/2000/svg">
<mask id="path-1-inside-1_347_190" fill="white">
<path d="M57.0018 1.17119C56.3624 0.421277 55.4954 0 54.5914 0C53.6874 0 52.8203 0.421277 52.181 1.17119L20.498 38.3445L5.86164 21.1719C5.54714 20.7898 5.17094 20.4851 4.75499 20.2755C4.33903 20.0658 3.89166 19.9555 3.43897 19.9509C2.98628 19.9462 2.53734 20.0474 2.11834 20.2486C1.69935 20.4497 1.31869 20.7467 0.998573 21.1223C0.67846 21.4979 0.425306 21.9445 0.253881 22.4361C0.0824564 22.9277 -0.00380503 23.4545 0.000128727 23.9856C0.00406248 24.5167 0.0981136 25.0416 0.276794 25.5297C0.455474 26.0177 0.715206 26.4591 1.04083 26.8281L18.0875 46.8288C18.7269 47.5787 19.5939 48 20.498 48C21.402 48 22.269 47.5787 22.9084 46.8288L57.0018 6.82739C57.6409 6.07725 58 5.05998 58 3.99929C58 2.93859 57.6409 1.92133 57.0018 1.17119Z"/>
</mask>
<path d="M57.0018 1.17119C56.3624 0.421277 55.4954 0 54.5914 0C53.6874 0 52.8203 0.421277 52.181 1.17119L20.498 38.3445L5.86164 21.1719C5.54714 20.7898 5.17094 20.4851 4.75499 20.2755C4.33903 20.0658 3.89166 19.9555 3.43897 19.9509C2.98628 19.9462 2.53734 20.0474 2.11834 20.2486C1.69935 20.4497 1.31869 20.7467 0.998573 21.1223C0.67846 21.4979 0.425306 21.9445 0.253881 22.4361C0.0824564 22.9277 -0.00380503 23.4545 0.000128727 23.9856C0.00406248 24.5167 0.0981136 25.0416 0.276794 25.5297C0.455474 26.0177 0.715206 26.4591 1.04083 26.8281L18.0875 46.8288C18.7269 47.5787 19.5939 48 20.498 48C21.402 48 22.269 47.5787 22.9084 46.8288L57.0018 6.82739C57.6409 6.07725 58 5.05998 58 3.99929C58 2.93859 57.6409 1.92133 57.0018 1.17119Z" fill="black"/>
<path d="M57.0018 1.17119L73.2401 -12.6646L73.236 -12.6695L57.0018 1.17119ZM52.181 1.17119L35.9468 -12.6695L35.9448 -12.667L52.181 1.17119ZM20.498 38.3445L4.26173 52.1827L20.498 71.2325L36.7342 52.1827L20.498 38.3445ZM5.86164 21.1719L-10.609 34.7303L-10.493 34.8712L-10.3746 35.0101L5.86164 21.1719ZM1.04083 26.8281L17.2771 12.9899L17.158 12.8502L17.0365 12.7126L1.04083 26.8281ZM18.0875 46.8288L1.85133 60.667L1.85339 60.6695L18.0875 46.8288ZM22.9084 46.8288L39.1425 60.6695L39.1446 60.667L22.9084 46.8288ZM57.0018 6.82739L73.238 20.6656L73.2401 20.6632L57.0018 6.82739ZM73.236 -12.6695C68.9562 -17.6893 62.3524 -21.3333 54.5914 -21.3333V21.3333C48.6384 21.3333 43.7687 18.5318 40.7676 15.0118L73.236 -12.6695ZM54.5914 -21.3333C46.8304 -21.3333 40.2265 -17.6893 35.9468 -12.6695L68.4151 15.0118C65.4141 18.5318 60.5443 21.3333 54.5914 21.3333V-21.3333ZM35.9448 -12.667L4.26173 24.5063L36.7342 52.1827L68.4172 15.0094L35.9448 -12.667ZM36.7342 24.5063L22.0979 7.33368L-10.3746 35.0101L4.26173 52.1827L36.7342 24.5063ZM22.3323 7.61353C20.2538 5.08859 17.5816 2.85041 14.3566 1.22498L-4.84659 39.3259C-7.23969 38.1198 -9.15951 36.4911 -10.609 34.7303L22.3323 7.61353ZM14.3566 1.22498C11.1152 -0.408695 7.46658 -1.34253 3.65646 -1.38137L3.22147 41.2831C0.31674 41.2535 -2.43712 40.5403 -4.84659 39.3259L14.3566 1.22498ZM3.65646 -1.38137C-0.154159 -1.42022 -3.8285 -0.560698 -7.11373 1.01631L11.3504 39.4808C8.90317 40.6556 6.12672 41.3127 3.22147 41.2831L3.65646 -1.38137ZM-7.11373 1.01631C-10.3824 2.5854 -13.1066 4.78382 -15.2376 7.2841L17.2348 34.9605C15.744 36.7097 13.7811 38.314 11.3504 39.4808L-7.11373 1.01631ZM-15.2376 7.2841C-17.3637 9.77852 -18.8973 12.5655 -19.8899 15.4119L20.3976 29.4604C19.7479 31.3235 18.7206 33.2173 17.2348 34.9605L-15.2376 7.2841ZM-19.8899 15.4119C-20.8826 18.2587 -21.3543 21.2182 -21.3326 24.1436L21.3329 23.8276C21.3467 25.6908 21.0475 27.5968 20.3976 29.4604L-19.8899 15.4119ZM-21.3326 24.1436C-21.311 27.069 -20.7954 30.0254 -19.7561 32.8642L20.3097 18.1952C20.9916 20.0579 21.3191 21.9645 21.3329 23.8276L-21.3326 24.1436ZM-19.7561 32.8642C-18.7169 35.7026 -17.1332 38.4752 -14.9549 40.9436L17.0365 12.7126C18.5636 14.443 19.6278 16.3328 20.3097 18.1952L-19.7561 32.8642ZM-15.1954 40.6663L1.85133 60.667L34.3238 32.9906L17.2771 12.9899L-15.1954 40.6663ZM1.85339 60.6695C6.13312 65.6893 12.737 69.3333 20.498 69.3333V26.6667C26.4509 26.6667 31.3207 29.4682 34.3217 32.9882L1.85339 60.6695ZM20.498 69.3333C28.2589 69.3333 34.8628 65.6893 39.1425 60.6695L6.6742 32.9882C9.67524 29.4682 14.545 26.6667 20.498 26.6667V69.3333ZM39.1446 60.667L73.238 20.6656L40.7656 -7.01083L6.67214 32.9906L39.1446 60.667ZM73.2401 20.6632C77.4291 15.7468 79.3333 9.71319 79.3333 3.99929H36.6667C36.6667 0.406777 37.8528 -3.59227 40.7635 -7.00841L73.2401 20.6632ZM79.3333 3.99929C79.3333 -1.71461 77.4291 -7.74819 73.2401 -12.6646L40.7635 15.007C37.8528 11.5908 36.6667 7.5918 36.6667 3.99929H79.3333Z" fill="#176BFC" mask="url(#path-1-inside-1_347_190)"/>
</svg>
