<svg width="65" height="65" viewBox="0 0 65 65" fill="none" xmlns="http://www.w3.org/2000/svg">
<circle cx="32.5" cy="32.5" r="32.5" fill="#176BFC"/>
<path d="M44.8134 48.851H42.1219V46.1864V42.1322C42.1209 41.0877 41.7013 40.0863 40.9552 39.3477C40.2092 38.6091 39.1976 38.1937 38.1425 38.1926H27.2608C26.2057 38.1937 25.1941 38.6091 24.4481 39.3477C23.702 40.0863 23.2824 41.0877 23.2814 42.1322V46.1864H42.1219V48.851H20.5898V42.1322C20.592 40.3813 21.2955 38.7027 22.5461 37.4647C23.7966 36.2266 25.4922 35.5301 27.2608 35.528H38.1425C39.9111 35.5301 41.6066 36.2266 42.8572 37.4647C44.1078 38.7027 44.8113 40.3813 44.8134 42.1322V48.851Z" fill="white"/>
<path d="M32.702 32.7019C31.105 32.7019 29.5439 32.2283 28.216 31.3411C26.8882 30.4538 25.8532 29.1927 25.2421 27.7173C24.6309 26.2419 24.471 24.6184 24.7826 23.0521C25.0942 21.4858 25.8632 20.047 26.9924 18.9178C28.1217 17.7885 29.5604 17.0195 31.1267 16.7079C32.693 16.3964 34.3165 16.5563 35.792 17.1674C37.2674 17.7786 38.5285 18.8135 39.4157 20.1414C40.3029 21.4692 40.7765 23.0303 40.7765 24.6273C40.7744 26.7682 39.923 28.8207 38.4092 30.3345C36.8954 31.8483 34.8428 32.6997 32.702 32.7019ZM32.702 19.2443C31.6373 19.2443 30.5966 19.56 29.7113 20.1515C28.8261 20.743 28.1361 21.5837 27.7287 22.5673C27.3213 23.551 27.2147 24.6333 27.4224 25.6775C27.6301 26.7217 28.1428 27.6809 28.8956 28.4337C29.6484 29.1865 30.6076 29.6992 31.6518 29.9069C32.696 30.1146 33.7784 30.008 34.762 29.6006C35.7456 29.1932 36.5863 28.5032 37.1778 27.618C37.7693 26.7327 38.085 25.692 38.085 24.6273C38.085 23.1997 37.5179 21.8305 36.5083 20.821C35.4988 19.8114 34.1296 19.2443 32.702 19.2443Z" fill="white"/>
</svg>
