<svg width="156" height="167" viewBox="0 0 156 167" fill="none" xmlns="http://www.w3.org/2000/svg">
<path d="M98.0566 165.057C95.4655 167.648 91.2646 167.648 88.6735 165.057L60.8986 137.282C58.3074 134.691 58.3074 130.49 60.8986 127.899C63.4897 125.308 67.6906 125.308 70.2817 127.899L98.0566 155.674C100.648 158.265 100.648 162.465 98.0566 165.057Z" fill="#176BFC"/>
<path d="M39.3809 145.76C17.6314 145.76 -7.62939e-06 128.129 -7.62939e-06 106.38C-7.62939e-06 84.631 17.6314 67 39.3809 67C61.1303 67 78.7617 84.631 78.7617 106.38C78.7617 128.129 61.1303 145.76 39.3809 145.76Z" fill="#176BFC"/>
<path d="M39.3809 135.819C23.1217 135.819 9.94103 122.639 9.94103 106.38C9.94103 90.1211 23.1217 76.9408 39.3809 76.9408C55.6401 76.9408 68.8208 90.1211 68.8208 106.38C68.8208 122.639 55.6401 135.819 39.3809 135.819Z" fill="#A0DDFF"/>
<path d="M116.727 55.431L113.588 62.1637C112.235 65.0637 108.836 66.1269 105.655 64.6436C102.701 63.2663 101.103 59.873 102.455 56.9726L107.478 46.2006C107.527 46.0969 107.64 46.1499 107.689 46.0463C107.623 45.8897 107.623 45.8896 107.672 45.786C108.927 43.0928 112.651 41.929 115.604 43.3061C122.761 46.6432 130.969 44.1656 133.964 37.744C137.006 31.2186 133.58 23.4419 126.423 20.1048C121.766 17.933 116.614 18.3047 112.862 20.7166C110.113 22.461 106.318 21.7005 104.268 18.9792C102.332 16.3108 102.824 12.8833 105.573 11.1389C112.657 6.62391 122.41 5.87565 131.157 9.95437C144.333 16.0988 150.585 30.8673 144.982 42.8825C140.201 53.1361 128.354 58.0783 116.727 55.431ZM106.15 78.1146L105.28 79.9791C103.928 82.8791 100.528 83.9423 97.3472 82.459C94.3936 81.0817 92.7952 77.6884 94.1477 74.788L95.0172 72.9235C96.3213 70.1266 99.9968 69.0664 102.95 70.4436C106.131 71.9267 107.454 75.318 106.15 78.1146Z" fill="#A0DDFF"/>
</svg>
