<svg width="50" height="44" viewBox="0 0 50 44" fill="none" xmlns="http://www.w3.org/2000/svg">
<path d="M3.57143 25.5792L39.2857 25.5792L27.5357 37.6176C27.201 37.9578 26.9353 38.3625 26.754 38.8084C26.5726 39.2543 26.4793 39.7325 26.4793 40.2156C26.4793 40.6986 26.5726 41.1769 26.754 41.6228C26.9353 42.0687 27.201 42.4734 27.5357 42.8135C28.2049 43.495 29.1101 43.8776 30.0536 43.8776C30.9971 43.8776 31.9023 43.495 32.5714 42.8135L47.8929 27.0794C49.2342 25.7133 49.992 23.8578 50 21.9201V21.9201C49.9826 19.995 49.2256 18.1545 47.8929 16.7973L32.5714 1.06321C32.2384 0.724443 31.8436 0.456194 31.4094 0.273774C30.9752 0.0913545 30.5102 -0.001662 30.0409 3.68895e-05C29.5717 0.00173578 29.1073 0.0981189 28.6744 0.283678C28.2415 0.469236 27.8485 0.74034 27.5179 1.08151C27.1872 1.42268 26.9254 1.82723 26.7473 2.27207C26.5693 2.71691 26.4785 3.19333 26.4802 3.67411C26.4818 4.1549 26.5759 4.63064 26.757 5.07418C26.9381 5.51772 27.2027 5.92036 27.5357 6.25913L39.2857 18.261L3.57143 18.261C2.62423 18.261 1.71582 18.6465 1.04604 19.3327C0.376272 20.0189 4.76837e-07 20.9496 4.76837e-07 21.9201C4.76837e-07 22.8905 0.376272 23.8212 1.04604 24.5074C1.71582 25.1937 2.62423 25.5792 3.57143 25.5792Z" fill="#616161"/>
</svg>
