<svg width="50" height="44" viewBox="0 0 50 44" fill="none" xmlns="http://www.w3.org/2000/svg">
<path d="M3.57143 25.579L39.2857 25.579L27.5357 37.6175C27.201 37.9576 26.9353 38.3623 26.754 38.8082C26.5726 39.2541 26.4793 39.7324 26.4793 40.2154C26.4793 40.6985 26.5726 41.1768 26.754 41.6226C26.9353 42.0685 27.201 42.4732 27.5357 42.8134C28.2049 43.4949 29.1101 43.8774 30.0536 43.8774C30.9971 43.8774 31.9023 43.4949 32.5714 42.8134L47.8929 27.0793C49.2342 25.7132 49.992 23.8577 50 21.9199C49.9826 19.9949 49.2256 18.1544 47.8929 16.7972L32.5714 1.06308C32.2384 0.724316 31.8436 0.456066 31.4094 0.273646C30.9752 0.0912263 30.5102 -0.00178804 30.0409 -8.91539e-05C29.5717 0.00160973 29.1073 0.0979901 28.6744 0.283549C28.2415 0.469108 27.8485 0.740212 27.5179 1.08138C27.1872 1.42255 26.9254 1.82711 26.7473 2.27194C26.5693 2.71678 26.4785 3.1932 26.4802 3.67399C26.4818 4.15477 26.5759 4.63051 26.757 5.07405C26.9381 5.51759 27.2027 5.92024 27.5357 6.259L39.2857 18.2608L3.57143 18.2608C2.62423 18.2608 1.71582 18.6464 1.04604 19.3326C0.376271 20.0188 0 20.9495 0 21.9199C0 22.8904 0.376271 23.8211 1.04604 24.5073C1.71582 25.1935 2.62423 25.579 3.57143 25.579Z" fill="#616161"/>
</svg>
