<svg width="164" height="164" viewBox="0 0 164 164" fill="none" xmlns="http://www.w3.org/2000/svg">
<rect width="164" height="164" rx="82" fill="#176BFC"/>
<path d="M119.5 74.4901V61.065C119.5 60.1878 119.45 59.3114 119.35 58.4399C118.849 53.8526 116.934 49.5346 113.87 46.0839C110.807 42.6331 106.746 40.2204 102.25 39.1798C88.9064 36.2734 75.0936 36.2734 61.75 39.1798C57.2546 40.2209 53.194 42.6338 50.1304 46.0844C47.0667 49.5351 45.1516 53.8528 44.65 58.4399C44.5503 59.3114 44.5002 60.1878 44.5 61.065V74.4901C42.5109 74.4901 40.6032 75.2803 39.1967 76.6868C37.7902 78.0933 37 80.001 37 81.9902V85.7402C37 87.7293 37.7902 89.637 39.1967 91.0435C40.6032 92.4501 42.5109 93.2402 44.5 93.2402V100.74C44.4983 103.651 45.1752 106.523 46.4771 109.127C47.779 111.731 49.67 113.995 52 115.74V117.615C51.9977 119.94 52.8593 122.183 54.4176 123.909C55.9759 125.634 58.1197 126.719 60.4328 126.953C62.746 127.186 65.0634 126.552 66.9353 125.173C68.8071 123.794 70.0999 121.769 70.5625 119.49H93.4375C93.9001 121.769 95.1929 123.794 97.0647 125.173C98.9366 126.552 101.254 127.186 103.567 126.953C105.88 126.719 108.024 125.634 109.582 123.909C111.141 122.183 112.002 119.94 112 117.615V115.74C114.33 113.995 116.221 111.731 117.523 109.127C118.825 106.523 119.502 103.651 119.5 100.74V93.2402C121.489 93.2402 123.397 92.4501 124.803 91.0435C126.21 89.637 127 87.7293 127 85.7402V81.9902C127 80.001 126.21 78.0933 124.803 76.6868C123.397 75.2803 121.489 74.4901 119.5 74.4901ZM52 85.7402V63.24H112V85.7402H52ZM63.445 46.4848C75.677 43.8239 88.338 43.8239 100.57 46.4848C102.946 47.0386 105.148 48.1743 106.977 49.7898C108.806 51.4053 110.205 53.4499 111.048 55.7399H97C97 54.7453 96.6049 53.7915 95.9016 53.0882C95.1984 52.385 94.2446 51.9899 93.25 51.9899H70.75C69.7554 51.9899 68.8016 52.385 68.0984 53.0882C67.3951 53.7915 67 54.7453 67 55.7399H52.9525C53.7968 53.4481 55.1978 51.4023 57.0295 49.7867C58.8611 48.1711 61.0658 47.0364 63.445 46.4848ZM100.75 111.99H63.25C60.2663 111.99 57.4048 110.805 55.295 108.695C53.1853 106.586 52 103.724 52 100.74V93.2402H59.5V96.9903C59.5 97.9849 59.8951 98.9387 60.5983 99.642C61.3016 100.345 62.2554 100.74 63.25 100.74C64.2446 100.74 65.1984 100.345 65.9016 99.642C66.6049 98.9387 67 97.9849 67 96.9903V93.2402H97V96.9903C97 97.9849 97.3951 98.9387 98.0983 99.642C98.8016 100.345 99.7554 100.74 100.75 100.74C101.745 100.74 102.698 100.345 103.402 99.642C104.105 98.9387 104.5 97.9849 104.5 96.9903V93.2402H112V100.74C112 103.724 110.815 106.586 108.705 108.695C106.595 110.805 103.734 111.99 100.75 111.99Z" fill="white"/>
</svg>
