<svg width="90" height="90" viewBox="0 0 90 90" fill="none" xmlns="http://www.w3.org/2000/svg">
<path d="M85.6225 34.3948L71.0739 19.8486C70.3666 19.1655 69.4191 18.7875 68.4357 18.796C67.4523 18.8046 66.5116 19.199 65.8163 19.8942C65.1209 20.5895 64.7264 21.5301 64.7179 22.5133C64.7093 23.4966 65.0874 24.4438 65.7706 25.1511L80.3192 39.6973C80.7514 40.1381 81.1292 40.6291 81.4443 41.1598C81.3881 41.1598 81.3431 41.1298 81.2868 41.1298L22.4624 41.2498C21.4676 41.2498 20.5137 41.6449 19.8103 42.3482C19.1069 43.0514 18.7118 44.0053 18.7118 44.9998C18.7118 45.9944 19.1069 46.9482 19.8103 47.6515C20.5137 48.3547 21.4676 48.7498 22.4624 48.7498L81.2643 48.6298C81.3693 48.6298 81.4556 48.5773 81.5569 48.5698C81.2242 49.2042 80.8023 49.7876 80.3042 50.3023L65.7556 64.8486C65.3973 65.1945 65.1116 65.6083 64.9151 66.0658C64.7185 66.5233 64.615 67.0154 64.6107 67.5133C64.6064 68.0112 64.7013 68.505 64.8898 68.9659C65.0784 69.4268 65.3569 69.8455 65.7091 70.1975C66.0612 70.5496 66.48 70.8281 66.9409 71.0167C67.4019 71.2052 67.8957 71.3001 68.3937 71.2958C68.8917 71.2914 69.3839 71.188 69.8415 70.9914C70.2991 70.7949 70.7129 70.5092 71.0589 70.1511L85.6075 55.6048C88.42 52.7919 90 48.9773 90 44.9998C90 41.0224 88.42 37.2077 85.6075 34.3948H85.6225Z" fill="#176BFC"/>
<path d="M26.2542 82.5H18.753C15.7688 82.5 12.9069 81.3147 10.7968 79.205C8.68666 77.0952 7.5012 74.2337 7.5012 71.25V18.75C7.5012 15.7663 8.68666 12.9048 10.7968 10.795C12.9069 8.68526 15.7688 7.5 18.753 7.5H26.2542C27.2489 7.5 28.2029 7.10491 28.9063 6.40165C29.6097 5.69839 30.0048 4.74456 30.0048 3.75C30.0048 2.75544 29.6097 1.80161 28.9063 1.09835C28.2029 0.395088 27.2489 0 26.2542 0L18.753 0C13.7812 0.00595447 9.01479 1.98331 5.49921 5.49832C1.98363 9.01334 0.00595542 13.779 0 18.75L0 71.25C0.00595542 76.221 1.98363 80.9867 5.49921 84.5017C9.01479 88.0167 13.7812 89.994 18.753 90H26.2542C27.2489 90 28.2029 89.6049 28.9063 88.9017C29.6097 88.1984 30.0048 87.2446 30.0048 86.25C30.0048 85.2554 29.6097 84.3016 28.9063 83.5983C28.2029 82.8951 27.2489 82.5 26.2542 82.5Z" fill="#176BFC"/>
</svg>
