<svg width="164" height="164" viewBox="0 0 164 164" fill="none" xmlns="http://www.w3.org/2000/svg">
<rect width="164" height="164" rx="82" fill="#176BFC"/>
<path d="M74.375 101.875L110.5 65.75L105.125 60.375L74.375 91.125L59.5 76.25L54.125 81.625L74.375 101.875ZM44.5 127C42.5 127 40.75 126.25 39.25 124.75C37.75 123.25 37 121.5 37 119.5V44.5C37 42.5 37.75 40.75 39.25 39.25C40.75 37.75 42.5 37 44.5 37H119.5C121.5 37 123.25 37.75 124.75 39.25C126.25 40.75 127 42.5 127 44.5V119.5C127 121.5 126.25 123.25 124.75 124.75C123.25 126.25 121.5 127 119.5 127H44.5ZM44.5 119.5H119.5V44.5H44.5V119.5Z" fill="white"/>
</svg>
