<svg width="192" height="192" viewBox="0 0 192 192" fill="none" xmlns="http://www.w3.org/2000/svg">
<circle cx="96" cy="96" r="96" fill="#176BFC"/>
<path d="M141 156H131V146V130.785C130.996 126.865 129.437 123.107 126.665 120.335C123.893 117.563 120.135 116.004 116.215 116H75.785C71.865 116.004 68.1067 117.563 65.3348 120.335C62.5629 123.107 61.0039 126.865 61 130.785V146H131V156H51V130.785C51.0079 124.214 53.6217 117.914 58.2681 113.268C62.9145 108.622 69.214 106.008 75.785 106H116.215C122.786 106.008 129.085 108.622 133.732 113.268C138.378 117.914 140.992 124.214 141 130.785V156Z" fill="white"/>
<path d="M96 96C90.0666 96 84.2664 94.2405 79.3329 90.9441C74.3994 87.6477 70.5542 82.9623 68.2836 77.4805C66.013 71.9987 65.4189 65.9667 66.5764 60.1473C67.734 54.3279 70.5912 48.9824 74.7868 44.7868C78.9824 40.5912 84.3279 37.734 90.1473 36.5765C95.9667 35.4189 101.999 36.013 107.481 38.2836C112.962 40.5543 117.648 44.3994 120.944 49.3329C124.241 54.2664 126 60.0666 126 66C125.992 73.9541 122.829 81.5801 117.204 87.2044C111.58 92.8288 103.954 95.9921 96 96ZM96 46C92.0444 46 88.1776 47.173 84.8886 49.3706C81.5996 51.5682 79.0362 54.6918 77.5224 58.3463C76.0087 62.0009 75.6126 66.0222 76.3843 69.9018C77.156 73.7814 79.0608 77.3451 81.8579 80.1422C84.6549 82.9392 88.2186 84.844 92.0982 85.6157C95.9778 86.3874 99.9991 85.9914 103.654 84.4776C107.308 82.9639 110.432 80.4004 112.629 77.1114C114.827 73.8224 116 69.9556 116 66C116 60.6957 113.893 55.6086 110.142 51.8579C106.391 48.1072 101.304 46 96 46Z" fill="white"/>
</svg>
