<svg width="164" height="164" viewBox="0 0 164 164" fill="none" xmlns="http://www.w3.org/2000/svg">
<rect width="164" height="164" rx="82" fill="#176BFC"/>
<path d="M123.904 54.3778L93.1798 40.0218C86.4166 36.0596 77.9989 35.9893 71.1678 39.8379L40.0979 54.3778C39.9813 54.4351 39.8604 54.4964 39.7479 54.5617C32.3747 58.6967 29.815 67.9111 34.0309 75.1428C35.46 77.5944 37.562 79.603 40.0979 80.9405L48.6686 84.9454V104.969C48.6737 113.923 54.614 121.834 63.3307 124.495C69.3968 126.216 75.6866 127.059 82.0011 126.996C88.3146 127.065 94.6045 126.23 100.672 124.516C109.388 121.855 115.329 113.944 115.334 104.99V84.9371L123.667 81.0303V114.736C123.667 116.993 125.532 118.823 127.833 118.823C130.134 118.823 132 116.993 132 114.736V65.6975C132.028 60.8988 128.164 56.4658 123.904 54.3778ZM107 104.99C107.002 110.346 103.46 115.083 98.2505 116.69C92.9682 118.17 87.4944 118.889 82.0009 118.823C76.5075 118.889 71.0336 118.17 65.7514 116.69C60.5423 115.083 56.9994 110.346 57.0016 104.99V88.8399L70.8221 95.2967C74.2322 97.2828 78.1268 98.3264 82.0927 98.3166C85.8676 98.3429 89.5791 97.3627 92.83 95.4806L107 88.8397V104.99ZM120.333 73.5642L88.9092 88.2758C84.5276 90.7781 79.0967 90.7072 74.7845 88.0919L44.0394 73.7481C40.6124 71.9356 39.3323 67.7414 41.1803 64.3804C41.8053 63.2437 42.7424 62.3014 43.8853 61.6601L75.1136 47.0303C79.4965 44.5335 84.9245 44.6042 89.2383 47.2142L119.962 61.5702C122.222 62.8008 123.636 65.1246 123.666 67.6592C123.671 70.0602 122.41 72.293 120.333 73.5642Z" fill="white"/>
</svg>
