<svg width="101" height="72" viewBox="0 0 101 72" fill="none" xmlns="http://www.w3.org/2000/svg">
<mask id="path-1-inside-1_777_2" fill="white">
<path d="M99.2617 1.75678C98.1484 0.631916 96.6386 0 95.0643 0C93.49 0 91.9802 0.631916 90.8669 1.75678L35.6947 57.5168L10.2073 31.7578C9.65968 31.1848 9.00457 30.7277 8.28023 30.4132C7.5559 30.0987 6.77685 29.9332 5.98855 29.9263C5.20024 29.9194 4.41847 30.0712 3.68884 30.3729C2.9592 30.6746 2.29633 31.1201 1.73889 31.6835C1.18146 32.2469 0.740619 32.9168 0.442104 33.6542C0.143588 34.3916 -0.006626 35.1817 0.000224162 35.9784C0.00707432 36.7751 0.170853 37.5625 0.482003 38.2945C0.793153 39.0266 1.24544 39.6887 1.81248 40.2422L31.4973 70.2432C32.6106 71.3681 34.1204 72 35.6947 72C37.269 72 38.7788 71.3681 39.8921 70.2432L99.2617 10.2411C100.375 9.11588 101 7.58997 101 5.99893C101 4.40789 100.375 2.88199 99.2617 1.75678Z"/>
</mask>
<path d="M99.2617 1.75678C98.1484 0.631916 96.6386 0 95.0643 0C93.49 0 91.9802 0.631916 90.8669 1.75678L35.6947 57.5168L10.2073 31.7578C9.65968 31.1848 9.00457 30.7277 8.28023 30.4132C7.5559 30.0987 6.77685 29.9332 5.98855 29.9263C5.20024 29.9194 4.41847 30.0712 3.68884 30.3729C2.9592 30.6746 2.29633 31.1201 1.73889 31.6835C1.18146 32.2469 0.740619 32.9168 0.442104 33.6542C0.143588 34.3916 -0.006626 35.1817 0.000224162 35.9784C0.00707432 36.7751 0.170853 37.5625 0.482003 38.2945C0.793153 39.0266 1.24544 39.6887 1.81248 40.2422L31.4973 70.2432C32.6106 71.3681 34.1204 72 35.6947 72C37.269 72 38.7788 71.3681 39.8921 70.2432L99.2617 10.2411C100.375 9.11588 101 7.58997 101 5.99893C101 4.40789 100.375 2.88199 99.2617 1.75678Z" fill="black"/>
<path d="M99.2617 1.75678L114.429 -13.2457L114.424 -13.2503L99.2617 1.75678ZM90.8669 1.75678L75.7045 -13.2503L75.7022 -13.248L90.8669 1.75678ZM35.6947 57.5168L20.53 72.5216L35.6947 87.8478L50.8594 72.5216L35.6947 57.5168ZM10.2073 31.7578L-5.21573 46.4969L-5.08768 46.6309L-4.95733 46.7626L10.2073 31.7578ZM8.28023 30.4132L-0.215458 49.9819L-0.21541 49.9819L8.28023 30.4132ZM5.98855 29.9263L5.80119 51.2588L5.80124 51.2588L5.98855 29.9263ZM3.68884 30.3729L-4.46294 10.6584L-4.46294 10.6584L3.68884 30.3729ZM0.482003 38.2945L20.1155 29.9495L20.1154 29.9495L0.482003 38.2945ZM1.81248 40.2422L16.9772 25.2374L16.8467 25.1056L16.7141 24.9761L1.81248 40.2422ZM31.4973 70.2432L16.3326 85.248L16.3349 85.2504L31.4973 70.2432ZM39.8921 70.2432L55.0545 85.2504L55.0568 85.248L39.8921 70.2432ZM99.2617 10.2411L114.426 25.2459L114.429 25.2436L99.2617 10.2411ZM114.424 -13.2503C109.328 -18.3992 102.369 -21.3333 95.0643 -21.3333V21.3333C90.9084 21.3333 86.9688 19.663 84.0993 16.7639L114.424 -13.2503ZM95.0643 -21.3333C87.7599 -21.3333 80.8006 -18.3992 75.7045 -13.2503L106.029 16.7639C103.16 19.663 99.2202 21.3333 95.0643 21.3333V-21.3333ZM75.7022 -13.248L20.53 42.512L50.8594 72.5216L106.032 16.7616L75.7022 -13.248ZM50.8594 42.512L25.372 16.753L-4.95733 46.7626L20.53 72.5216L50.8594 42.512ZM25.6304 17.0188C23.1262 14.3984 20.1183 12.2956 16.7759 10.8445L-0.21541 49.9819C-2.10919 49.1598 -3.80686 47.9712 -5.21573 46.4969L25.6304 17.0188ZM16.7759 10.8445C13.433 9.39315 9.82887 8.62584 6.17586 8.59377L5.80124 51.2588C3.72483 51.2406 1.67884 50.8043 -0.215458 49.9819L16.7759 10.8445ZM6.17591 8.59377C2.52306 8.56168 -1.09431 9.26551 -4.46294 10.6584L11.8406 50.0873C9.93124 50.8768 7.87743 51.277 5.80119 51.2588L6.17591 8.59377ZM-4.46294 10.6584C-7.83108 12.0511 -10.8759 14.1016 -13.4258 16.6787L16.9035 46.6883C15.4685 48.1386 13.7495 49.298 11.8406 50.0873L-4.46294 10.6584ZM-13.4258 16.6787C-15.9753 19.2553 -17.9793 22.3068 -19.3324 25.6491L20.2166 41.6593C19.4606 43.5268 18.3382 45.2384 16.9035 46.6883L-13.4258 16.6787ZM-19.3324 25.6491C-20.6852 28.991 -21.3633 32.5641 -21.3323 36.1618L21.3328 35.795C21.35 37.7993 20.9724 39.7922 20.2166 41.6593L-19.3324 25.6491ZM-21.3323 36.1618C-21.3014 39.7596 -20.562 43.3208 -19.1514 46.6395L20.1154 29.9495C20.9037 31.8041 21.3155 33.7906 21.3328 35.795L-21.3323 36.1618ZM-19.1515 46.6395C-17.7407 49.9586 -15.6837 52.9756 -13.0891 55.5083L16.7141 24.9761C18.1746 26.4017 19.327 28.0945 20.1155 29.9495L-19.1515 46.6395ZM-13.3522 55.247L16.3326 85.248L46.6619 55.2384L16.9772 25.2374L-13.3522 55.247ZM16.3349 85.2504C21.431 90.3992 28.3902 93.3333 35.6947 93.3333V50.6667C39.8506 50.6667 43.7902 52.337 46.6596 55.2361L16.3349 85.2504ZM35.6947 93.3333C42.9992 93.3333 49.9584 90.3992 55.0545 85.2504L24.7298 55.2361C27.5992 52.337 31.5388 50.6667 35.6947 50.6667V93.3333ZM55.0568 85.248L114.426 25.2459L84.0971 -4.76372L24.7275 55.2384L55.0568 85.248ZM114.429 25.2436C119.516 20.1008 122.333 13.1743 122.333 5.99893H79.6667C79.6667 2.00565 81.2338 -1.86909 84.0948 -4.76142L114.429 25.2436ZM122.333 5.99893C122.333 -1.17643 119.516 -8.10298 114.429 -13.2457L84.0948 16.7593C81.2338 13.867 79.6667 9.99221 79.6667 5.99893H122.333Z" fill="#176BFC" mask="url(#path-1-inside-1_777_2)"/>
</svg>
