<svg width="164" height="164" viewBox="0 0 164 164" fill="none" xmlns="http://www.w3.org/2000/svg">
<rect width="164" height="164" rx="82" fill="#176BFC"/>
<path d="M106.5 70.08V65.3333C106.5 59.1449 103.919 53.21 99.3241 48.8342C94.7295 44.4583 88.4978 42 82 42C75.5022 42 69.2705 44.4583 64.6759 48.8342C60.0812 53.21 57.5 59.1449 57.5 65.3333V70.08C54.3828 71.3757 51.7295 73.5084 49.8647 76.2174C48 78.9263 47.0045 82.0941 47 85.3333V105.333C47.0056 109.752 48.8511 113.988 52.1318 117.113C55.4125 120.237 59.8604 121.995 64.5 122H99.5C104.14 121.995 108.588 120.237 111.868 117.113C115.149 113.988 116.994 109.752 117 105.333V85.3333C116.996 82.0941 116 78.9263 114.135 76.2174C112.27 73.5084 109.617 71.3757 106.5 70.08V70.08ZM64.5 65.3333C64.5 60.9131 66.3437 56.6738 69.6256 53.5482C72.9075 50.4226 77.3587 48.6667 82 48.6667C86.6413 48.6667 91.0925 50.4226 94.3744 53.5482C97.6563 56.6738 99.5 60.9131 99.5 65.3333V68.6667H64.5V65.3333ZM110 105.333C110 107.985 108.894 110.529 106.925 112.404C104.955 114.28 102.285 115.333 99.5 115.333H64.5C61.7152 115.333 59.0445 114.28 57.0754 112.404C55.1062 110.529 54 107.985 54 105.333V85.3333C54 82.6812 55.1062 80.1376 57.0754 78.2623C59.0445 76.3869 61.7152 75.3333 64.5 75.3333H99.5C102.285 75.3333 104.955 76.3869 106.925 78.2623C108.894 80.1376 110 82.6812 110 85.3333V105.333Z" fill="white"/>
<path d="M82 88.6665C81.0717 88.6665 80.1815 89.0177 79.5251 89.6428C78.8687 90.2679 78.5 91.1158 78.5 91.9998V98.6665C78.5 99.5506 78.8687 100.398 79.5251 101.024C80.1815 101.649 81.0717 102 82 102C82.9283 102 83.8185 101.649 84.4749 101.024C85.1313 100.398 85.5 99.5506 85.5 98.6665V91.9998C85.5 91.1158 85.1313 90.2679 84.4749 89.6428C83.8185 89.0177 82.9283 88.6665 82 88.6665Z" fill="white"/>
</svg>
