<svg width="164" height="164" viewBox="0 0 164 164" fill="none" xmlns="http://www.w3.org/2000/svg">
<rect width="164" height="164" rx="82" fill="#176BFC"/>
<path d="M103.357 52H59.7857C55.6601 52.0043 51.7049 53.4424 48.7877 55.9988C45.8705 58.5552 44.2294 62.0211 44.2245 65.6364V98.3636C44.2294 101.979 45.8705 105.445 48.7877 108.001C51.7049 110.558 55.6601 111.996 59.7857 112H103.357C107.483 111.996 111.438 110.558 114.355 108.001C117.272 105.445 118.913 101.979 118.918 98.3636V65.6364C118.913 62.0211 117.272 58.5552 114.355 55.9988C111.438 53.4424 107.483 52.0043 103.357 52ZM59.7857 57.4545H103.357C105.221 57.4578 107.041 57.9496 108.582 58.8667C110.124 59.7839 111.318 61.0844 112.009 62.6009L88.1756 83.4891C86.4216 85.0199 84.047 85.8795 81.5714 85.8795C79.0959 85.8795 76.7212 85.0199 74.9672 83.4891L51.1337 62.6009C51.8251 61.0844 53.0185 59.7839 54.5604 58.8667C56.1023 57.9496 57.9221 57.4578 59.7857 57.4545ZM103.357 106.545H59.7857C57.3095 106.545 54.9346 105.683 53.1836 104.149C51.4327 102.615 50.449 100.534 50.449 98.3636V69.7273L70.5665 87.3455C73.4878 89.8989 77.4454 91.3328 81.5714 91.3328C85.6975 91.3328 89.6551 89.8989 92.5763 87.3455L112.694 69.7273V98.3636C112.694 100.534 111.71 102.615 109.959 104.149C108.208 105.683 105.833 106.545 103.357 106.545Z" fill="white"/>
</svg>
