<svg width="90" height="90" viewBox="0 0 90 90" fill="none" xmlns="http://www.w3.org/2000/svg">
<path d="M45 0C33.9206 0.00789888 23.2355 4.11233 15 11.5237V3.75C15 2.75544 14.6049 1.80161 13.9016 1.09835C13.1984 0.395088 12.2446 0 11.25 0C10.2554 0 9.30161 0.395088 8.59835 1.09835C7.89509 1.80161 7.5 2.75544 7.5 3.75V15C7.5 17.9837 8.68526 20.8452 10.795 22.9549C12.9048 25.0647 15.7663 26.25 18.75 26.25H30C30.9946 26.25 31.9484 25.8549 32.6516 25.1516C33.3549 24.4484 33.75 23.4946 33.75 22.5C33.75 21.5054 33.3549 20.5516 32.6516 19.8483C31.9484 19.1451 30.9946 18.75 30 18.75H18.75C18.6235 18.7313 18.4983 18.705 18.375 18.6712C24.4857 12.5168 32.543 8.67403 41.1715 7.79874C49.8 6.92346 58.4648 9.06995 65.687 13.8719C72.9091 18.6737 78.2408 25.8333 80.7719 34.1286C83.3031 42.4238 82.8769 51.3403 79.5659 59.3563C76.255 67.3722 70.2646 73.9905 62.6173 78.0816C54.9701 82.1726 46.14 83.4827 37.6343 81.7883C29.1286 80.0939 21.4747 75.5 15.979 68.7907C10.4832 62.0815 7.48639 53.6728 7.5 45C7.5 44.0054 7.10491 43.0516 6.40165 42.3483C5.69839 41.6451 4.74456 41.25 3.75 41.25C2.75544 41.25 1.80161 41.6451 1.09835 42.3483C0.395088 43.0516 0 44.0054 0 45C0 53.9002 2.6392 62.6004 7.58387 70.0007C12.5285 77.4009 19.5566 83.1686 27.7792 86.5746C36.0019 89.9805 45.0499 90.8717 53.7791 89.1353C62.5082 87.399 70.5264 83.1132 76.8198 76.8198C83.1132 70.5264 87.399 62.5082 89.1353 53.7791C90.8717 45.0499 89.9805 36.0019 86.5746 27.7792C83.1686 19.5566 77.4009 12.5285 70.0007 7.58387C62.6004 2.6392 53.9002 0 45 0V0Z" fill="#D9D9D9"/>
<path d="M45.0001 25.1084C44.0056 25.1084 43.0517 25.5035 42.3485 26.2067C41.6452 26.91 41.2501 27.8638 41.2501 28.8584V47.6084C41.2503 48.6029 41.6456 49.5565 42.3489 50.2596L53.5989 61.5096C54.3061 62.1927 55.2534 62.5707 56.2366 62.5622C57.2199 62.5536 58.1604 62.1592 58.8557 61.464C59.551 60.7687 59.9454 59.8281 59.9539 58.8449C59.9624 57.8617 59.5845 56.9144 58.9014 56.2071L48.7501 46.0559V28.8584C48.7501 27.8638 48.355 26.91 47.6518 26.2067C46.9485 25.5035 45.9947 25.1084 45.0001 25.1084Z" fill="#D9D9D9"/>
</svg>
