<svg width="90" height="90" viewBox="0 0 90 90" fill="none" xmlns="http://www.w3.org/2000/svg">
<path d="M86.1563 32.6024L59.5838 6.0298C51.5234 -2.00993 38.4768 -2.00993 30.4163 6.0298L3.84385 32.6024C1.37448 35.0586 -0.00961765 38.4005 5.03097e-05 41.8836V80.8012C0.00831202 85.8811 4.12651 89.9958 9.20641 90H80.7938C85.8737 89.996 89.9917 85.8811 89.9999 80.8012V41.8836C90.0098 38.4005 88.6257 35.0586 86.1563 32.6024ZM78.75 78.75H60.0001V66.8174C60.0001 58.91 53.5899 52.4998 45.6826 52.4998H44.3176C36.4103 52.4998 30.0001 58.91 30.0001 66.8174V78.75H11.25V41.8836C11.2513 41.3863 11.4478 40.9096 11.7976 40.5561L38.3701 13.9836C42.0307 10.3219 47.9667 10.3212 51.6283 13.9818C51.6289 13.9823 51.6296 13.983 51.6301 13.9836L78.2026 40.5561C78.5522 40.9096 78.7489 41.3863 78.7501 41.8836V78.75H78.75Z" fill="#D9D9D9"/>
</svg>
