<svg width="128" height="128" viewBox="0 0 128 128" fill="none" xmlns="http://www.w3.org/2000/svg">
<circle cx="64" cy="64" r="64" fill="#176BFC"/>
<path d="M94 103.541H87.3333V96.9456V86.9105C87.3307 84.325 86.2914 81.8462 84.4435 80.018C82.5956 78.1899 80.09 77.1616 77.4767 77.159H50.5233C47.91 77.1616 45.4045 78.1899 43.5565 80.018C41.7086 81.8462 40.6693 84.325 40.6667 86.9105V96.9456H87.3333V103.541H34V86.9105C34.0053 82.5766 35.7478 78.4217 38.8454 75.3572C41.943 72.2927 46.1427 70.5687 50.5233 70.5635H77.4767C81.8573 70.5687 86.057 72.2927 89.1546 75.3572C92.2522 78.4217 93.9947 82.5766 94 86.9105V103.541Z" fill="white"/>
<path d="M64 63.5686C60.0444 63.5686 56.1776 62.3964 52.8886 60.2003C49.5996 58.0041 47.0362 54.8827 45.5224 51.2306C44.0087 47.5786 43.6126 43.56 44.3843 39.683C45.156 35.806 47.0608 32.2448 49.8579 29.4496C52.6549 26.6545 56.2186 24.7509 60.0982 23.9797C63.9778 23.2086 67.9992 23.6044 71.6537 25.1171C75.3082 26.6298 78.4318 29.1915 80.6294 32.4783C82.827 35.765 84 39.6292 84 43.5822C83.9947 48.8813 81.8859 53.9618 78.1363 57.7089C74.3867 61.4559 69.3027 63.5633 64 63.5686ZM64 30.2579C61.3629 30.2579 58.7851 31.0393 56.5924 32.5034C54.3997 33.9675 52.6908 36.0485 51.6816 38.4832C50.6724 40.9179 50.4084 43.5969 50.9229 46.1816C51.4373 48.7663 52.7072 51.1404 54.5719 53.0039C56.4366 54.8673 58.8124 56.1363 61.3988 56.6504C63.9852 57.1646 66.6661 56.9007 69.1025 55.8922C71.5388 54.8837 73.6212 53.1759 75.0863 50.9847C76.5513 48.7936 77.3333 46.2175 77.3333 43.5822C77.3333 40.0483 75.9286 36.6592 73.4281 34.1605C70.9276 31.6617 67.5362 30.2579 64 30.2579Z" fill="white"/>
</svg>
