<svg width="132" height="267" viewBox="0 0 132 267" fill="none" xmlns="http://www.w3.org/2000/svg">
<path d="M122.171 51.7604C120.985 49.5843 117.872 44.8155 101.409 37.3151C95.1522 34.4639 91.8696 32.9707 86.764 31.574C84.6708 31.003 76.4988 28.8694 66.002 28.9813C56.1076 29.0855 37.9833 29.2822 22.4388 42.3154C8.60901 53.9094 4.8204 68.9604 4.08663 72.1319C3.0632 76.5457 -0.605688 93.5567 8.90638 109.727C15.352 120.684 25.0418 126.545 28.9269 128.617C32.8237 130.692 37.4967 132.479 43.3862 134.728C49.7005 137.139 54.9799 138.837 57.8455 139.728C67.9175 142.857 70.0068 142.784 77.6806 145.655C82.2493 147.364 84.5318 148.22 87.5055 149.914C91.6108 152.256 98.489 156.18 102.15 163.248C106.194 171.053 105.425 180.672 101.779 187.879C95.9324 199.442 83.7208 202.614 78.4221 203.991C65.4072 207.375 54.474 203.698 44.8692 200.473C37.9215 198.138 35.5927 197.324 29.0196 192.787C24.1767 189.442 22.8945 188.088 19.102 184.916C17.4839 183.562 14.2591 181.887 10.9455 182.138C5.33405 182.559 0.240089 189.071 0.0083697 195.287C-0.196316 200.754 3.39919 204.832 5.75501 207.51C7.44656 209.431 9.10335 210.739 13.17 213.436C20.0212 217.977 23.4429 220.25 28.1854 222.511C30.8 223.757 40.6442 228.264 54.5087 229.919C72.6407 232.079 86.4628 228.028 89.3593 227.141C96.1872 225.05 104.572 222.48 112.902 215.103C122.762 206.368 126.512 196.24 128.103 191.768C129.771 187.084 134.583 172.952 129.586 156.026C128.296 151.654 124.959 142.379 116.795 133.802C108.071 124.639 98.6203 120.954 82.1296 115.283C65.2219 109.468 57.0113 106.949 51.3573 105.097C48.3102 104.097 45.0198 103.492 39.6787 100.652C38.4042 99.9769 31.0587 94.2281 29.8538 84.54C28.394 72.8148 37.1259 63.4238 44.1277 59.3534C47.758 57.2429 50.8668 56.5948 54.5087 55.8347C66.7628 53.2805 77.0511 56.124 81.5735 57.6866C90.9504 60.9237 97.8865 65.8353 97.8865 65.8353C102.56 69.1418 105.858 72.5293 111.315 72.7338C112.392 72.7762 115.339 72.8495 118.243 71.0902C122.877 68.2852 124.438 62.602 124.206 58.4236C124.156 57.4166 123.909 54.9434 122.171 51.7604Z" fill="#176BFC"/>
<path d="M68.1224 263.404C67.3696 264.817 65.3452 264.817 64.5924 263.404L55.333 246.03C54.623 244.698 55.5884 243.09 57.098 243.09H75.6168C77.1264 243.09 78.0918 244.698 77.3818 246.03L68.1224 263.404Z" fill="#A0DDFF"/>
<rect x="54" y="21" width="24" height="215" rx="3" fill="#A0DDFF"/>
<path d="M54.251 6.99999C54.251 3.134 57.385 0 61.251 0H71.4835C75.3495 0 78.4835 3.13401 78.4835 7V12.5395C78.4835 13.6441 77.5881 14.5395 76.4835 14.5395H56.251C55.1465 14.5395 54.251 13.6441 54.251 12.5395V6.99999Z" fill="#A0DDFF"/>
</svg>
