<svg width="128" height="128" viewBox="0 0 128 128" fill="none" xmlns="http://www.w3.org/2000/svg">
<circle cx="64" cy="64" r="64" fill="#176BFC"/>
<path d="M83.4583 37.3359H45.5417C41.9515 37.3405 38.5096 38.8628 35.971 41.5688C33.4324 44.2748 32.0043 47.9437 32 51.7706L32 74.8661C32.0043 78.693 33.4324 82.3618 35.971 85.0678C38.5096 87.7739 41.9515 89.2961 45.5417 89.3007H83.4583C87.0485 89.2961 90.4904 87.7739 93.029 85.0678C95.5676 82.3618 96.9957 78.693 97 74.8661V51.7706C96.9957 47.9437 95.5676 44.2748 93.029 41.5688C90.4904 38.8628 87.0485 37.3405 83.4583 37.3359ZM45.5417 43.1098H83.4583C85.6132 43.1098 87.6798 44.0223 89.2036 45.6465C90.7273 47.2707 91.5833 49.4736 91.5833 51.7706H37.4167C37.4167 49.4736 38.2727 47.2707 39.7964 45.6465C41.3202 44.0223 43.3868 43.1098 45.5417 43.1098ZM83.4583 83.5268H45.5417C43.3868 83.5268 41.3202 82.6144 39.7964 80.9902C38.2727 79.3659 37.4167 77.163 37.4167 74.8661V57.5445H91.5833V74.8661C91.5833 77.163 90.7273 79.3659 89.2036 80.9902C87.6798 82.6144 85.6132 83.5268 83.4583 83.5268Z" fill="white"/>
</svg>
