<svg width="164" height="164" viewBox="0 0 164 164" fill="none" xmlns="http://www.w3.org/2000/svg">
<rect width="164" height="164" rx="82" fill="#176BFC"/>
<path d="M63.5334 102.378C66.2948 102.378 68.5334 99.9898 68.5334 97.0443C68.5334 94.0988 66.2948 91.7109 63.5334 91.7109C60.7719 91.7109 58.5334 94.0988 58.5334 97.0443C58.5334 99.9898 60.7719 102.378 63.5334 102.378Z" fill="white"/>
<path d="M105.333 55H58.6667C54.248 55.0056 50.0119 56.8805 46.8874 60.2132C43.7629 63.546 42.0053 68.0646 42 72.7778L42 101.222C42.0053 105.935 43.7629 110.454 46.8874 113.787C50.0119 117.12 54.248 118.994 58.6667 119H105.333C109.752 118.994 113.988 117.12 117.113 113.787C120.237 110.454 121.995 105.935 122 101.222V72.7778C121.995 68.0646 120.237 63.546 117.113 60.2132C113.988 56.8805 109.752 55.0056 105.333 55ZM58.6667 62.1111H105.333C107.985 62.1111 110.529 63.2349 112.404 65.2353C114.28 67.2357 115.333 69.9488 115.333 72.7778H48.6667C48.6667 69.9488 49.7202 67.2357 51.5956 65.2353C53.471 63.2349 56.0145 62.1111 58.6667 62.1111ZM105.333 111.889H58.6667C56.0145 111.889 53.471 110.765 51.5956 108.765C49.7202 106.764 48.6667 104.051 48.6667 101.222V79.8889H115.333V101.222C115.333 104.051 114.28 106.764 112.404 108.765C110.529 110.765 107.985 111.889 105.333 111.889Z" fill="white"/>
</svg>
