<svg width="90" height="90" viewBox="0 0 90 90" fill="none" xmlns="http://www.w3.org/2000/svg">
<path d="M88.9482 83.65L66.5828 61.2847C72.6777 53.8305 75.6743 44.319 74.9529 34.7174C74.2314 25.1158 69.8472 16.1587 62.707 9.69901C55.5667 3.23928 46.2168 -0.228934 36.5911 0.0117376C26.9655 0.252409 17.8005 4.18356 10.992 10.992C4.18356 17.8005 0.252409 26.9655 0.0117376 36.5911C-0.228934 46.2168 3.23928 55.5667 9.69901 62.707C16.1587 69.8472 25.1158 74.2314 34.7174 74.9529C44.319 75.6743 53.8305 72.6777 61.2847 66.5828L83.65 88.9482C84.3567 89.6307 85.3032 90.0084 86.2856 89.9999C87.2681 89.9913 88.2078 89.5973 88.9026 88.9026C89.5973 88.2078 89.9913 87.2681 89.9999 86.2856C90.0084 85.3032 89.6307 84.3567 88.9482 83.65ZM37.5891 67.5645C31.6606 67.5645 25.8651 65.8065 20.9357 62.5128C16.0063 59.219 12.1643 54.5375 9.89551 49.0602C7.62675 43.5829 7.03314 37.5559 8.18974 31.7412C9.34635 25.9266 12.2012 20.5855 16.3934 16.3934C20.5855 12.2012 25.9266 9.34635 31.7412 8.18974C37.5559 7.03314 43.5829 7.62675 49.0602 9.89551C54.5375 12.1643 59.219 16.0063 62.5128 20.9357C65.8065 25.8651 67.5645 31.6606 67.5645 37.5891C67.5556 45.5364 64.3946 53.1555 58.7751 58.7751C53.1555 64.3946 45.5364 67.5556 37.5891 67.5645Z" fill="#176BFC"/>
</svg>
