<svg width="164" height="164" viewBox="0 0 164 164" fill="none" xmlns="http://www.w3.org/2000/svg">
<rect width="164" height="164" rx="82" fill="#176BFC"/>
<path d="M112.715 68.9251L95.1148 51.3023L103.063 43.3437C104.35 42.0551 105.94 41.4109 107.832 41.4109C109.725 41.4109 111.314 42.0551 112.601 43.3437L120.663 51.416C121.95 52.7046 122.594 54.2963 122.594 56.1912C122.594 58.0861 121.95 59.6779 120.663 60.9664L112.715 68.9251ZM41.0658 123.044V105.307L63.0942 83.2506L38 58.0103L57.7574 38L83.0787 63.354L95.1148 51.3023L112.715 68.9251L100.679 80.9767L126 106.331L106.129 126L80.9213 100.873L58.7794 123.044H41.0658ZM67.9768 78.3618L78.1961 68.1292L69.9071 59.8295L64.4568 65.2868L59.6877 60.5116L65.1381 55.0543L57.871 47.7778L47.6516 58.0103L67.9768 78.3618ZM105.902 116.45L116.121 106.217L108.854 98.9406L103.404 104.398L98.6348 99.6227L104.085 94.1654L95.7961 85.8656L85.5768 96.0982L105.902 116.45ZM47.8787 116.222H55.8271L102.95 69.0388L95.0013 61.0801L47.8787 108.264V116.222Z" fill="white"/>
</svg>
