<svg width="164" height="164" viewBox="0 0 164 164" fill="none" xmlns="http://www.w3.org/2000/svg">
<rect width="164" height="164" rx="82" fill="#176BFC"/>
<path d="M91.6667 122H71.6667C62.4767 122 55 114.523 55 105.333V58.6667C55 49.4767 62.4767 42 71.6667 42H91.6667C100.857 42 108.333 49.4767 108.333 58.6667V105.333C108.333 114.523 100.857 122 91.6667 122ZM71.6667 48.6667C66.1533 48.6667 61.6667 53.1533 61.6667 58.6667V105.333C61.6667 110.847 66.1533 115.333 71.6667 115.333H91.6667C97.18 115.333 101.667 110.847 101.667 105.333V58.6667C101.667 53.1533 97.18 48.6667 91.6667 48.6667H71.6667ZM88.3333 105.333C88.3333 103.493 86.84 102 85 102H78.3333C76.4933 102 75 103.493 75 105.333C75 107.173 76.4933 108.667 78.3333 108.667H85C86.84 108.667 88.3333 107.173 88.3333 105.333Z" fill="white"/>
</svg>
