<svg width="68" height="90" viewBox="0 0 68 90" fill="none" xmlns="http://www.w3.org/2000/svg">
<path d="M67.75 90H60.25V71.0888C60.247 68.1487 59.0778 65.33 56.9989 63.2511C54.92 61.1722 52.1013 60.003 49.1612 60H18.8387C15.8987 60.003 13.08 61.1722 11.0011 63.2511C8.92221 65.33 7.75298 68.1487 7.75 71.0888V90H0.25V71.0888C0.255954 66.1605 2.21632 61.4359 5.70109 57.9511C9.18587 54.4663 13.9105 52.506 18.8387 52.5H49.1612C54.0895 52.506 58.8141 54.4663 62.2989 57.9511C65.7837 61.4359 67.744 66.1605 67.75 71.0888V90Z" fill="#D9D9D9"/>
<path d="M34 45C29.5499 45 25.1998 43.6804 21.4997 41.2081C17.7996 38.7357 14.9157 35.2217 13.2127 31.1104C11.5097 26.9991 11.0642 22.4751 11.9323 18.1105C12.8005 13.7459 14.9434 9.73679 18.0901 6.59011C21.2368 3.44343 25.2459 1.30051 29.6105 0.432341C33.9751 -0.435826 38.4991 0.00974894 42.6104 1.71272C46.7217 3.41569 50.2357 6.29957 52.7081 9.99968C55.1804 13.6998 56.5 18.0499 56.5 22.5C56.4941 28.4656 54.1216 34.1851 49.9033 38.4033C45.6851 42.6216 39.9656 44.9941 34 45ZM34 7.50001C31.0333 7.50001 28.1332 8.37974 25.6665 10.028C23.1997 11.6762 21.2771 14.0189 20.1418 16.7598C19.0065 19.5007 18.7095 22.5166 19.2882 25.4264C19.867 28.3361 21.2956 31.0088 23.3934 33.1066C25.4912 35.2044 28.1639 36.633 31.0737 37.2118C33.9834 37.7906 36.9994 37.4935 39.7403 36.3582C42.4812 35.2229 44.8238 33.3003 46.4721 30.8336C48.1203 28.3668 49 25.4667 49 22.5C49 18.5218 47.4197 14.7065 44.6066 11.8934C41.7936 9.08036 37.9783 7.50001 34 7.50001Z" fill="#D9D9D9"/>
</svg>
